<?xml version="1.0" encoding="utf-8"?><svg xmlns="http://www.w3.org/2000/svg" xmlns:xlink="http://www.w3.org/1999/xlink"><symbol viewBox="0 0 286.376 286.376" id="add"><path d="M268.477 125.29H161.086V17.899c0-9.885-8.013-17.898-17.898-17.898S125.29 8.014 125.29 17.899v107.39H17.9c-9.885 0-17.9 8.013-17.9 17.898s8.015 17.898 17.9 17.898h107.39v107.39c0 9.885 8.013 17.898 17.898 17.898s17.898-8.013 17.898-17.898v-107.39h107.391c9.885 0 17.898-8.014 17.898-17.898.001-9.884-8.013-17.897-17.898-17.897z" fill-rule="evenodd" clip-rule="evenodd"/></symbol><symbol viewBox="0 0 64 64" id="arrow-back"><path d="M45.539 63.41c.394.394.908.59 1.424.59s1.031-.197 1.424-.59a2.013 2.013 0 0 0 0-2.848L20.059 32.233 48.407 3.886a2.015 2.015 0 0 0-2.849-2.848L15.822 30.773a2.28 2.28 0 0 0-.484.778 2.014 2.014 0 0 0 .465 2.124L45.539 63.41z"/></symbol><symbol viewBox="0 0 407.437 407.437" id="arrow-bottom"><path d="M386.258 91.567l-182.54 181.945L21.179 91.567 0 112.815 203.718 315.87l203.719-203.055z"/></symbol><symbol viewBox="0 0 64 64" id="arrow-next"><path d="M44.152 32.024L15.824 60.353a2.014 2.014 0 1 0 2.848 2.849l29.736-29.736c.557-.557.718-1.439.445-2.177a2.042 2.042 0 0 0-.464-.725L18.652.828a2.013 2.013 0 1 0-2.848 2.848l28.348 28.348z"/></symbol><symbol viewBox="0 0 45.3 17" id="back"><path d="M8.5 17L0 8.5 8.5 0l1.4 1.4-7.1 7.1 7.1 7.1z"/><path d="M1.4 7.5h43.8v2H1.4z"/></symbol><symbol viewBox="0 0 348.077 348.077" id="call"><path d="M340.273 275.083l-53.755-53.761c-10.707-10.664-28.438-10.34-39.518.744l-27.082 27.076a792.327 792.327 0 0 1-5.344-2.973c-17.102-9.476-40.509-22.464-65.14-47.113-24.704-24.701-37.704-48.144-47.209-65.257-1.003-1.813-1.964-3.561-2.913-5.221l18.176-18.149 8.936-8.947c11.097-11.1 11.403-28.826.721-39.521L73.39 8.194c-10.682-10.68-28.421-10.356-39.518.744l-15.15 15.237.414.411c-5.08 6.482-9.325 13.958-12.484 22.02C3.74 54.28 1.927 61.603 1.098 68.941-6 127.785 20.89 181.564 93.866 254.541c100.875 100.868 182.167 93.248 185.674 92.876 7.638-.913 14.958-2.738 22.397-5.627 7.992-3.122 15.463-7.361 21.941-12.43l.331.294 15.348-15.029c11.074-11.098 11.393-28.83.716-39.542z"/></symbol><symbol viewBox="0 0 64 64" id="cancel"><path d="M28.941 31.786L.613 60.114a2.014 2.014 0 1 0 2.848 2.849l28.541-28.541 28.541 28.541c.394.394.909.59 1.424.59a2.014 2.014 0 0 0 1.424-3.439L35.064 31.786 63.41 3.438A2.014 2.014 0 1 0 60.562.589L32.003 29.15 3.441.59A2.015 2.015 0 0 0 .593 3.439l28.348 28.347z"/></symbol><symbol viewBox="0 0 297 297" id="del"><path d="M229.99 48.228H67.01c-8.5 0-15.415 6.915-15.415 15.415v12.31h193.81v-12.31c0-8.5-6.915-15.415-15.415-15.415zM70.324 263.781C71.875 282.408 87.734 297 106.426 297h84.147c18.692 0 34.551-14.592 36.103-33.219l14.518-174.21H55.806l14.518 174.21zm50.414-237.679c0-6.883 5.6-12.483 12.483-12.483h30.556c6.884 0 12.484 5.6 12.484 12.483v8.507h13.619v-8.507C189.881 11.71 178.171 0 163.777 0h-30.556c-14.392 0-26.102 11.71-26.102 26.102v8.507h13.619v-8.507z"/></symbol><symbol viewBox="0 0 139.4 44.7" id="dorohovdesign"><path d="M52.2 19.5V8.1H57c3.6 0 6.1 2.1 6.1 5.7 0 3.5-2.6 5.7-6.1 5.7h-4.8zm7.9-5.7c0-1.8-1.1-3.1-3.1-3.1h-1.9v6.2H57c2 0 3.1-1.4 3.1-3.1m4.1 0c0-3.4 2.6-5.9 6.1-5.9 3.5 0 6.1 2.4 6.1 5.9 0 3.5-2.6 5.9-6.1 5.9-3.5 0-6.1-2.4-6.1-5.9m9.2 0c0-1.9-1.2-3.3-3.1-3.3-1.9 0-3.1 1.4-3.1 3.3 0 1.8 1.2 3.3 3.1 3.3 1.9 0 3.1-1.4 3.1-3.3m11 5.7l-1.9-3.8H81v3.8h-2.9V8.1h5.7c2.5 0 3.9 1.7 3.9 3.8 0 2-1.2 3-2.3 3.4l2.3 4.2h-3.3zm.3-7.6c0-.8-.6-1.2-1.4-1.2H81v2.4h2.3c.8 0 1.4-.4 1.4-1.2m4.2 1.9c0-3.4 2.6-5.9 6.1-5.9 3.5 0 6.1 2.4 6.1 5.9 0 3.5-2.6 5.9-6.1 5.9-3.5 0-6.1-2.4-6.1-5.9m9.1 0c0-1.9-1.2-3.3-3.1-3.3-1.9 0-3.1 1.4-3.1 3.3 0 1.8 1.2 3.3 3.1 3.3 1.9 0 3.1-1.4 3.1-3.3m12.4 5.7v-4.6h-4.7v4.6h-3V8.1h3v4.3h4.7V8.1h2.9v11.4zm4.6-5.7c0-3.4 2.6-5.9 6.1-5.9 3.5 0 6.1 2.4 6.1 5.9 0 3.5-2.6 5.9-6.1 5.9-3.5 0-6.1-2.4-6.1-5.9m9.2 0c0-1.9-1.2-3.3-3.1-3.3-1.9 0-3.1 1.4-3.1 3.3 0 1.8 1.2 3.3 3.1 3.3 1.9 0 3.1-1.4 3.1-3.3m7.3 5.7l-4.3-11.4h3.3l2.8 8.2 2.8-8.2h3.3l-4.2 11.4zm-79.3 17V25.1H57c3.6 0 6.1 2.1 6.1 5.7 0 3.5-2.6 5.7-6.1 5.7h-4.8zm7.9-5.7c0-1.8-1.1-3.1-3.1-3.1h-1.9v6.2H57c2 0 3.1-1.4 3.1-3.1m4.7 5.7V25.1h8.3v2.6h-5.3v1.8H73V32h-5.2v1.9h5.3v2.6zm9.6-1.6l1.5-2.2c.8.8 2.1 1.5 3.6 1.5 1 0 1.6-.4 1.6-.9 0-1.5-6.4-.3-6.4-4.7 0-1.9 1.6-3.6 4.5-3.6 1.8 0 3.4.5 4.6 1.6l-1.6 2.1c-1-.8-2.2-1.2-3.3-1.2-.8 0-1.2.3-1.2.8 0 1.4 6.4.4 6.4 4.6 0 2.3-1.7 3.8-4.7 3.8-2.2 0-3.8-.7-5-1.8m11.5-9.8h2.9v11.3h-2.9zm4.7 5.7c0-3.6 2.8-5.9 6.1-5.9 2.5 0 4.1 1.3 4.8 2.8L99.1 29c-.4-.7-1.3-1.4-2.4-1.4-1.9 0-3.2 1.4-3.2 3.3s1.3 3.3 3.2 3.3c.8 0 1.7-.3 2.1-.7v-.9h-2.6V30h5.5v4.5c-1.2 1.3-2.9 2.2-5 2.2-3.4 0-6.1-2.3-6.1-5.9m20.9 5.7l-4.8-6.6v6.6h-2.9V25.1h3l4.6 6.3v-6.3h2.9v11.4zM17.7 0H0v44.7h17.8c15 0 24.6-8.8 24.6-22.4C42.4 8.7 32.7 0 17.7 0m-.4 35.7h-8V9.5h8c9.3 0 15.7 3.7 15.7 12.7.1 7.5-5.8 13.5-15.7 13.5"/><path d="M19.1 17H17v10.6h2c4 0 6.4-2.4 6.4-5.4 0-3.7-2.6-5.2-6.3-5.2"/></symbol><symbol viewBox="0 0 528.899 528.899" id="edit"><path d="M328.883 89.125l107.59 107.589-272.34 272.34L56.604 361.465l272.279-272.34zm189.23-25.948l-47.981-47.981c-18.543-18.543-48.653-18.543-67.259 0l-45.961 45.961 107.59 107.59 53.611-53.611c14.382-14.383 14.382-37.577 0-51.959zM.3 512.69c-1.958 8.812 5.998 16.708 14.811 14.565l119.891-29.069L27.473 390.597.3 512.69z"/></symbol><symbol viewBox="0 0 37.195 37.195" id="email"><path d="M19.332 22.844c-.5.416-1.114.441-1.612 0C11.84 17.616 5.957 12.391.074 7.162c-.03.046-.046.109-.074.157v23.677h37.195V7.998c-5.956 4.948-11.909 9.898-17.863 14.846z"/><path d="M16.729 18.922c.607.541 1.217 1.082 1.823 1.623C24.264 15.8 29.971 11.056 35.68 6.311c-.076-.04-.158-.072-.233-.111H2.412c2.83 2.517 5.662 5.032 8.492 7.548a7384.73 7384.73 0 0 1 5.825 5.174z"/></symbol><symbol viewBox="0 0 487.601 487.601" id="eye"><path d="M379 229.65c-25.6 0-46.3 20.8-46.3 46.3 0 6.1 5 11.1 11.1 11.1s11.1-5 11.1-11.1c0-13.3 10.9-24.2 24.2-24.2 6.1 0 11.1-5 11.1-11.1-.1-6.1-5.1-11-11.2-11z"/><path d="M454.5 197.75c-2.7-2.6-5.6-5.1-8.6-7.5l-41-34.8c-15.8-11.2-34.6-18.3-55-19.7l2.2 2.2-24.9-25h-.2c-6.9-6.3-16.2-10.2-26.3-10.2-17.4 0-32.1 11.3-37.1 27-5-3.2-10.8-5.1-17.1-5.5-1-.1-2.1-.1-3.1-.1-7.1 0-13.7 2.1-19.3 5.6-5.1-15.6-19.8-26.9-37.1-26.9-10.1 0-19.3 3.8-26.3 10.2h-.2l-24.9 25 2.2-2.2c-20.4 1.4-39.3 8.6-55 19.7l-41 34.8c-3 2.3-5.9 4.8-8.6 7.5-20.5 19.8-33.2 47.5-33.2 78.2 0 60 48.8 108.8 108.8 108.8 55.4 0 101.3-41.7 107.9-95.4 8 4.6 17.3 7.2 27.1 7.2 9.9 0 19.1-2.6 27.1-7.2 6.7 53.6 52.5 95.3 107.9 95.3 60 0 108.8-48.8 108.8-108.8.1-30.7-12.6-58.4-33.1-78.2zm-345.7 152.5c-41 0-74.2-33.2-74.2-74.2s33.2-74.2 74.2-74.2 74.2 33.2 74.2 74.2c.1 40.9-33.2 74.2-74.2 74.2zm135.1-84.4c-13.3 0-24.1-10.8-24.1-24.1s10.8-24.1 24.1-24.1 24.1 10.8 24.1 24.1-10.8 24.1-24.1 24.1zm135.1 84.4c-41 0-74.2-33.2-74.2-74.2s33.2-74.2 74.2-74.2 74.2 33.2 74.2 74.2c0 40.9-33.2 74.2-74.2 74.2z"/><path d="M108.8 229.65c-25.6 0-46.3 20.8-46.3 46.3 0 6.1 5 11.1 11.1 11.1s11.1-5 11.1-11.1c0-13.3 10.9-24.2 24.2-24.2 6.1 0 11.1-5 11.1-11.1-.1-6.1-5.1-11-11.2-11z"/></symbol><symbol viewBox="0 0 96.124 96.123" id="fb"><path d="M72.089.02L59.624 0C45.62 0 36.57 9.285 36.57 23.656v10.907H24.037a1.96 1.96 0 0 0-1.96 1.961v15.803a1.96 1.96 0 0 0 1.96 1.96H36.57v39.876a1.96 1.96 0 0 0 1.96 1.96h16.352a1.96 1.96 0 0 0 1.96-1.96V54.287h14.654a1.96 1.96 0 0 0 1.96-1.96l.006-15.803a1.963 1.963 0 0 0-1.961-1.961H56.842v-9.246c0-4.444 1.059-6.7 6.848-6.7l8.397-.003a1.96 1.96 0 0 0 1.959-1.96V1.98A1.96 1.96 0 0 0 72.089.02z"/></symbol><symbol viewBox="0 0 97.395 97.395" id="inst"><path d="M12.501 0h72.393c6.875 0 12.5 5.09 12.5 12.5v72.395c0 7.41-5.625 12.5-12.5 12.5H12.501C5.624 97.395 0 92.305 0 84.895V12.5C0 5.09 5.624 0 12.501 0zm58.447 10.821a4.395 4.395 0 0 0-4.383 4.385v10.495a4.396 4.396 0 0 0 4.383 4.385h11.008a4.398 4.398 0 0 0 4.385-4.385V15.206a4.397 4.397 0 0 0-4.385-4.385H70.948zm15.439 30.367h-8.572a28.486 28.486 0 0 1 1.25 8.355c0 16.2-13.556 29.332-30.275 29.332-16.718 0-30.272-13.132-30.272-29.332 0-2.904.438-5.708 1.25-8.355h-8.945v41.141a3.884 3.884 0 0 0 3.872 3.872h67.822a3.883 3.883 0 0 0 3.872-3.872V41.188h-.002zM48.789 29.533c-10.802 0-19.56 8.485-19.56 18.953s8.758 18.953 19.56 18.953c10.803 0 19.562-8.485 19.562-18.953s-8.758-18.953-19.562-18.953z"/></symbol><symbol viewBox="0 0 268.832 268.832" id="next"><path d="M265.171 125.577l-80-80c-4.881-4.881-12.797-4.881-17.678 0-4.882 4.882-4.882 12.796 0 17.678l58.661 58.661H12.5c-6.903 0-12.5 5.597-12.5 12.5 0 6.902 5.597 12.5 12.5 12.5h213.654l-58.659 58.661c-4.882 4.882-4.882 12.796 0 17.678 2.44 2.439 5.64 3.661 8.839 3.661s6.398-1.222 8.839-3.661l79.998-80c4.882-4.882 4.882-12.796 0-17.678z"/></symbol><symbol viewBox="0 0 95.481 95.481" id="ok"><path d="M43.041 67.254c-7.402-.772-14.076-2.595-19.79-7.064-.709-.556-1.441-1.092-2.088-1.713-2.501-2.402-2.753-5.153-.774-7.988 1.693-2.426 4.535-3.075 7.489-1.682.572.27 1.117.607 1.639.969 10.649 7.317 25.278 7.519 35.967.329 1.059-.812 2.191-1.474 3.503-1.812 2.551-.655 4.93.282 6.299 2.514 1.564 2.549 1.544 5.037-.383 7.016-2.956 3.034-6.511 5.229-10.461 6.761-3.735 1.448-7.826 2.177-11.875 2.661.611.665.899.992 1.281 1.376 5.498 5.524 11.02 11.025 16.5 16.566 1.867 1.888 2.257 4.229 1.229 6.425-1.124 2.4-3.64 3.979-6.107 3.81-1.563-.108-2.782-.886-3.865-1.977-4.149-4.175-8.376-8.273-12.441-12.527-1.183-1.237-1.752-1.003-2.796.071-4.174 4.297-8.416 8.528-12.683 12.735-1.916 1.889-4.196 2.229-6.418 1.15-2.362-1.145-3.865-3.556-3.749-5.979.08-1.639.886-2.891 2.011-4.014 5.441-5.433 10.867-10.88 16.295-16.322.359-.362.694-.746 1.217-1.305z"/><path d="M47.55 48.329c-13.205-.045-24.033-10.992-23.956-24.218C23.67 10.739 34.505-.037 47.84 0c13.362.036 24.087 10.967 24.02 24.478-.068 13.199-10.971 23.897-24.31 23.851zm12.001-24.186c-.023-6.567-5.253-11.795-11.807-11.801-6.609-.007-11.886 5.316-11.835 11.943.049 6.542 5.324 11.733 11.896 11.709 6.552-.023 11.768-5.285 11.746-11.851z"/></symbol><symbol viewBox="0 0 480.56 480.56" id="phone"><path d="M365.354 317.9c-15.7-15.5-35.3-15.5-50.9 0-11.9 11.8-23.8 23.6-35.5 35.6-3.2 3.3-5.9 4-9.8 1.8-7.7-4.2-15.9-7.6-23.3-12.2-34.5-21.7-63.4-49.6-89-81-12.7-15.6-24-32.3-31.9-51.1-1.6-3.8-1.3-6.3 1.8-9.4 11.9-11.5 23.5-23.3 35.2-35.1 16.3-16.4 16.3-35.6-.1-52.1-9.3-9.4-18.6-18.6-27.9-28-9.6-9.6-19.1-19.3-28.8-28.8-15.7-15.3-35.3-15.3-50.9.1-12 11.8-23.5 23.9-35.7 35.5-11.3 10.7-17 23.8-18.2 39.1-1.9 24.9 4.2 48.4 12.8 71.3 17.6 47.4 44.4 89.5 76.9 128.1 43.9 52.2 96.3 93.5 157.6 123.3 27.6 13.4 56.2 23.7 87.3 25.4 21.4 1.2 40-4.2 54.9-20.9 10.2-11.4 21.7-21.8 32.5-32.7 16-16.2 16.1-35.8.2-51.8-19-19.1-38.1-38.1-57.2-57.1zm-19.1-79.7l36.9-6.3c-5.8-33.9-21.8-64.6-46.1-89-25.7-25.7-58.2-41.9-94-46.9l-5.2 37.1c27.7 3.9 52.9 16.4 72.8 36.3 18.8 18.8 31.1 42.6 35.6 68.8zm57.7-160.4c-42.6-42.6-96.5-69.5-156-77.8l-5.2 37.1c51.4 7.2 98 30.5 134.8 67.2 34.9 34.9 57.8 79 66.1 127.5l36.9-6.3c-9.7-56.2-36.2-107.2-76.6-147.7z"/></symbol><symbol viewBox="0 0 6.3 10" id="ruble"><path d="M2.1 10H.8V5.8H0V4.5h.8V0h2.9c.7 0 2.5.5 2.5 2.8 0 2.2-1.6 3-3 3H2.1V10zm0-5.5h1.1C4.4 4.5 5 3.9 5 2.8c0-1.4-1-1.5-1.2-1.5H2.1v3.2z"/><path d="M0 6.7h6.3V8H0z"/></symbol><symbol viewBox="-3 1 64 64" id="school"><path d="M55.7 54.3c.6 0 1.1-.5 1.1-1.1V14.9c0-.6-.5-1.1-1.1-1.1-.6 0-1.1.5-1.1 1.1v38.4c0 .6.5 1 1.1 1zm3.2 5.4v-1.1h-3.2c-.6 0-1.1-.5-1.1-1.1s.5-1.1 1.1-1.1h3.2V11.7h-3.2c-.6 0-1.1-.5-1.1-1.1 0-.6.5-1.1 1.1-1.1h2.5l-2.5-5.1-3.2 6.4v48.8c0 1.8 1.4 3.2 3.2 3.2 1.7.1 3.2-1.4 3.2-3.1zM61 10.6v49.1c0 2.9-2.4 5.3-5.3 5.3s-5.3-2.4-5.3-5.3V10.6c0-.2 0-.3.1-.5l4.3-8.5c.4-.7 1.5-.7 1.9 0l4.2 8.4c0 .1.1.4.1.6zM30.1 33H19.4c-.6 0-1.1.5-1.1 1.1 0 .6.5 1.1 1.1 1.1h10.7c.6 0 1.1-.5 1.1-1.1-.1-.6-.5-1.1-1.1-1.1zm-10.7-2.1h6.4c.6 0 1.1-.5 1.1-1.1 0-.6-.5-1.1-1.1-1.1h-6.4c-.6 0-1.1.5-1.1 1.1 0 .6.5 1.1 1.1 1.1zm-5.3 8.5h21.3V24.5H14.1v14.9zm-2.2 1.1V23.4c0-.6.5-1.1 1.1-1.1h23.5c.6 0 1.1.5 1.1 1.1v17.1c0 .6-.5 1.1-1.1 1.1H13c-.6-.1-1.1-.5-1.1-1.1zM-.9 10.7v49c0 1.7 1.5 3.2 3.2 3.2h40.5c1.7 0 3.2-1.5 3.2-3.2v-48H2.3c-.8 0-2.1-.3-3.2-1zm48-7.6H1.3c-1.2 0-2.1 1-2.1 2.1v1.1c0 3 2.7 3.2 3.2 3.2h44.8c.6 0 1.1.5 1.1 1.1v49.1c0 2.9-2.4 5.3-5.3 5.3H2.3C-.5 65-3 62.6-3 59.7V5.3C-3 2.9-1.1 1 1.3 1h45.9c.6 0 1.1.5 1.1 1.1s-.6 1-1.2 1zM2.3 60.7c.6 0 1.1-.5 1.1-1.1V14.9c0-.6-.5-1.1-1.1-1.1s-1.1.5-1.1 1.1v44.8c.1.6.6 1 1.1 1zM45 5.3c.6 0 1.1.5 1.1 1.1s-.5 1-1.1 1H2.3c-.6 0-1.1-.5-1.1-1.1s.5-1.1 1.1-1.1H45z"/></symbol><symbol viewBox="0 0 1438.7 506" id="superwebstar"><style>.st0{fill-rule:evenodd;clip-rule:evenodd}</style><path d="M156.2 226.2l34.6 107.1 112.5-.2-91.1 65.9 35 107-91-66.3L65.3 506l35-107-91.2-65.9 112.6.2zM78.3 89.8C72.9 92 56.8 79 44 67.2 33 56.9 24.2 49.6 22.1 47.9l.3-.6c.6-1.4.9-2.9.9-4.5 0-6.4-5.2-11.6-11.7-11.6C5.2 31.1 0 36.3 0 42.7s5.2 11.6 11.6 11.6L41 148.2s64.5-18.3 112-16.8c47.5-1.4 112 16.8 112 16.8l29.3-93.8c6.4 0 11.6-5.2 11.6-11.6 0-6.4-5.2-11.6-11.6-11.6-6.4 0-11.7 5.2-11.7 11.6 0 1.6.3 3.1.9 4.5l.3.6c-2.1 1.7-10.9 9-21.9 19.3C249.3 79 233.1 92 227.8 89.8c-5.4-2.2-16.3-49.6-18.6-66.9 4.9-1.4 8.5-5.9 8.5-11.2 0-6.4-5.2-11.6-11.6-11.6-6.4 0-11.7 5.2-11.7 11.6 0 3.3 1.4 6.3 3.6 8.4-2.3 3.9-37.1 62.2-45 62.2-8 0-42.7-58.3-45-62.2 2.2-2.1 3.6-5.1 3.6-8.4C111.6 5.2 106.4 0 100 0c-6.4 0-11.6 5.2-11.6 11.6 0 5.4 3.6 9.9 8.5 11.2-2.3 17.4-13.2 64.9-18.6 67z"/><path d="M88.1 158.5c-.5-2.5 1.1-4.8 3.5-5.3 2.4-.4 4.7 1.2 5.2 3.7s-1.1 4.8-3.5 5.3-4.7-1.2-5.2-3.7zm52.9-3.2c-2.4 0-4.4-2-4.4-4.6 0-2.5 2-4.6 4.4-4.6 2.4 0 4.4 2 4.4 4.6 0 2.6-2 4.6-4.4 4.6zm22.7 0c-2.4 0-4.4-2-4.4-4.6 0-2.5 2-4.6 4.4-4.6 2.4 0 4.4 2 4.4 4.6 0 2.6-2 4.6-4.4 4.6zm45.9 1.2c.5-2.5 2.8-4.1 5.2-3.7 2.4.4 4 2.8 3.5 5.3s-2.8 4.1-5.2 3.7c-2.4-.4-4-2.8-3.5-5.3zm45.3 22.7l7.9-24.4-1.2-.3c-24.8-6.5-51.9-11.6-77.3-14.4-10.6-1.2-21.3-2-32-2s-21.4.8-32 2c-25.3 2.9-52.5 8-77.2 14.4l-.5.1 6.9 25.1C80.6 171.6 120.9 164 153 164c31.5-.1 71 7.3 101.9 15.2zm-23-18.6c.5-2.5 2.8-4.1 5.2-3.7 2.4.4 4 2.8 3.5 5.3s-2.8 4.1-5.2 3.7c-2.4-.4-4-2.8-3.5-5.3zm-162.6-3.2c2.4-.4 4.7 1.2 5.2 3.7s-1.1 4.8-3.5 5.3c-2.4.4-4.7-1.2-5.2-3.7s1.1-4.9 3.5-5.3zM704.2 175.8c-8.4 4.2-25.3 8.4-46.9 8.4-50.1 0-87.8-31.6-87.8-89.9 0-55.6 37.7-93.3 92.8-93.3 22.1 0 36.1 4.7 42.2 7.9L699 27.6c-8.7-4.2-21.1-7.4-35.8-7.4-41.6 0-69.3 26.6-69.3 73.3 0 43.5 25 71.4 68.3 71.4 14 0 28.2-2.9 37.4-7.4l4.6 18.3zm40-171.9l35.3 75.7c4.5 10.5 8.7 20.8 12.9 31.4h.5c3.2-9.2 6.6-19.5 11.1-32.2l27.7-74.9H856l-37.2 91.2c-9.8 23.7-20.8 50.9-33.2 67.5-11.6 14.5-24.5 21.9-40.3 21.9-5.8 0-10-.5-12.9-1.6l2.4-18.7c1.8.5 4.5.8 8.4.8 18.5-.3 29.3-17.9 34.8-30.6 1.8-4 1.3-6.6-.8-10.8l-59-119.7h26zm259.1 0v177.7h-22.9V23.2h-82.5v158.4H875V3.9h128.3zm132.1 94.4h-69.1v64.1h77v19.2h-99.9V3.9h95.9v19.2h-73v56.1h69.1v19.1zM1173.1 6c11.1-1.8 25.6-3.4 44-3.4 22.7 0 39.3 5.3 49.8 14.8 9.8 8.4 15.6 21.4 15.6 37.2 0 16.1-4.7 28.7-13.7 38-12.1 12.9-31.9 19.5-54.3 19.5-6.9 0-13.2-.3-18.5-1.6v71.2h-22.9V6zm22.9 85.7c5 1.3 11.3 1.8 19 1.8 27.7 0 44.5-13.4 44.5-38 0-23.5-16.6-34.8-41.9-34.8-10 0-17.7.8-21.6 1.8v69.2zM423.8 322.6c10-2.1 25.8-3.7 41.9-3.7 22.9 0 37.7 4 48.8 12.9 9.2 6.9 14.8 17.4 14.8 31.4 0 17.1-11.3 32.2-30 39v.5c16.9 4.2 36.6 18.2 36.6 44.5 0 15.3-6.1 26.9-15 35.6-12.4 11.3-32.4 16.6-61.4 16.6-15.8 0-27.9-1.1-35.6-2.1V322.6zm23 72.7h20.8c24.3 0 38.5-12.7 38.5-29.8 0-20.8-15.8-29-39-29-10.5 0-16.6.8-20.3 1.6v57.2zm0 85.2c4.5.8 11.1 1.1 19.2 1.1 23.7 0 45.6-8.7 45.6-34.5 0-24.3-20.8-34.3-45.9-34.3h-19v67.7zm211.9-65.9h-69.1v64.1h77v19.2h-99.9V320.2h95.9v19.2h-73v56.1h69.1v19.1zM796 320.2v19.2h-76.7v47.7c5.5-.8 16.1-1.3 21.9-1.3 16.9 0 33.5 3.7 45.9 11.9 13.4 8.7 22.7 22.7 22.7 43.5 0 16.6-5.5 29.3-14.8 38.5-14.5 14.2-38.5 19.8-62.7 19.8-16.1 0-28.2-1.1-35.8-2.1V320.2H796zm-76.7 160c5.3 1.1 11.3 1.3 19.2 1.3 14.2 0 28.7-4.5 37.4-13.7 6.1-6.3 9.8-15 9.8-26.1 0-13.7-5.8-22.9-14.5-29-9.2-6.3-21.1-9-33.7-9-5.3 0-12.4.5-18.2 1.1v75.4zm301 11.9c-8.4 4.2-25.3 8.4-46.9 8.4-50.1 0-87.8-31.6-87.8-89.9 0-55.6 37.7-93.3 92.8-93.3 22.1 0 36.1 4.7 42.2 7.9l-5.5 18.7c-8.7-4.2-21.1-7.4-35.8-7.4-41.6 0-69.3 26.6-69.3 73.3 0 43.5 25 71.4 68.3 71.4 14 0 28.2-2.9 37.4-7.4l4.6 18.3zm71.7-152.4h-54v-19.5h131.5v19.5h-54.3v158.2H1092V339.7zM1196.7 442l-18.5 55.9h-23.7l60.4-177.7h27.7l60.6 177.7h-24.5l-19-55.9h-63zm58.2-17.9l-17.4-51.1c-4-11.6-6.6-22.1-9.2-32.4h-.5c-2.6 10.5-5.5 21.4-9 32.2l-17.4 51.4h53.5zm74.4-101.8c11.1-1.8 25.6-3.4 44-3.4 22.7 0 39.3 5.3 49.8 14.8 9.8 8.4 15.6 21.4 15.6 37.2 0 16.1-4.7 28.7-13.7 38-12.1 12.9-31.9 19.5-54.3 19.5-6.9 0-13.2-.3-18.5-1.6V498h-22.9V322.3zm22.9 85.7c5 1.3 11.3 1.8 19 1.8 27.7 0 44.5-13.4 44.5-38 0-23.5-16.6-34.8-41.9-34.8-10 0-17.7.8-21.6 1.8V408z"/></symbol><symbol viewBox="0 0 485 485" id="viber"><path d="M372.5 0h-260C51.846 0 2.5 49.346 2.5 110v175c0 60.654 49.346 110 110 110h40v80a9.999 9.999 0 0 0 16 8l117.333-88H372.5c60.654 0 110-49.346 110-110V110c0-60.654-49.346-110-110-110zm90 285c0 49.626-40.374 90-90 90h-90a10 10 0 0 0-6 2l-104 78v-70c0-5.523-4.477-10-10-10h-50c-49.626 0-90-40.374-90-90V110c0-49.626 40.374-90 90-90h260c49.626 0 90 40.374 90 90v175z"/><path d="M272.179 233.336l-.098-.096c-3.812-3.718-8.826-5.765-14.118-5.765a19.858 19.858 0 0 0-14.133 5.854l-14.135 14.136-42.446-42.371 14.122-14.122c3.775-3.775 5.854-8.808 5.854-14.171 0-5.364-2.08-10.397-5.854-14.171l-49.499-49.499c-3.775-3.775-8.79-5.855-14.122-5.855a19.839 19.839 0 0 0-14.121 5.854l-46 46a9.996 9.996 0 0 0-2.849 8.336c.248 1.931 6.824 48.081 75.644 116.9 68.737 68.839 115 75.315 116.936 75.557a10.005 10.005 0 0 0 8.312-2.852l10.55-10.551 35.32-35.319c3.843-3.778 5.959-8.818 5.959-14.201 0-5.385-2.116-10.425-5.96-14.203l-49.362-49.461zm35.238 63.705l-42.038 42.038c-12.25-3.318-48.963-16.929-100.807-68.851-51.38-51.379-65.412-88.541-68.896-100.862l42.054-42.095 49.5 49.557-21.2 21.201a10 10 0 0 0 .007 14.148l56.6 56.5c3.907 3.899 10.234 3.897 14.136-.006l21.19-21.196c.042 0 .086.021.137.066l49.323 49.422.036.036-.042.042zM237.5 100v20c49.626 0 90 40.374 90 90h20c0-60.654-49.346-110-110-110z"/><path d="M282.5 205h20c0-35.841-29.159-65-65-65v20c24.814 0 45 20.187 45 45zm-45-145v20c74.44 0 135 60.561 135 135h20c0-85.467-69.532-155-155-155z"/></symbol><symbol viewBox="0 0 304.36 304.36" id="vk"><path d="M261.945 175.576c10.096 9.857 20.752 19.131 29.807 29.982 4 4.822 7.787 9.798 10.684 15.394 4.105 7.955.387 16.709-6.746 17.184l-44.34-.02c-11.436.949-20.559-3.655-28.23-11.474-6.139-6.253-11.824-12.908-17.727-19.372-2.42-2.642-4.953-5.128-7.979-7.093-6.053-3.929-11.307-2.726-14.766 3.587-3.523 6.421-4.322 13.531-4.668 20.687-.475 10.441-3.631 13.186-14.119 13.664-22.414 1.057-43.686-2.334-63.447-13.641-17.422-9.968-30.932-24.04-42.691-39.971-22.895-31.021-40.428-65.108-56.186-100.15C-2.01 76.458.584 72.22 9.295 72.07c14.465-.281 28.928-.261 43.41-.02 5.879.086 9.771 3.458 12.041 9.012 7.826 19.243 17.402 37.551 29.422 54.521 3.201 4.518 6.465 9.036 11.113 12.216 5.142 3.521 9.057 2.354 11.476-3.374 1.535-3.632 2.207-7.544 2.553-11.434 1.146-13.383 1.297-26.743-.713-40.079-1.234-8.323-5.922-13.711-14.227-15.286-4.238-.803-3.607-2.38-1.555-4.799 3.564-4.172 6.916-6.769 13.598-6.769h50.111c7.889 1.557 9.641 5.101 10.721 13.039l.043 55.663c-.086 3.073 1.535 12.192 7.07 14.226 4.43 1.448 7.35-2.096 10.008-4.905 11.998-12.734 20.561-27.783 28.211-43.366 3.395-6.852 6.314-13.968 9.143-21.078 2.096-5.276 5.385-7.872 11.328-7.757l48.229.043c1.43 0 2.877.021 4.262.258 8.127 1.385 10.354 4.881 7.844 12.817-3.955 12.451-11.65 22.827-19.174 33.251-8.043 11.129-16.645 21.877-24.621 33.072-7.328 10.223-6.746 15.376 2.357 24.255zm0 0" fill-rule="evenodd" clip-rule="evenodd"/></symbol></svg>