<?xml version="1.0" encoding="iso-8859-1"?>
<!-- Generator: Adobe Illustrator 19.0.0, SVG Export Plug-In . SVG Version: 6.00 Build 0)  -->
<svg version="1.1" id="Layer_1" xmlns="http://www.w3.org/2000/svg" xmlns:xlink="http://www.w3.org/1999/xlink" x="0px" y="0px"
	 viewBox="0 0 297 297" style="enable-background:new 0 0 297 297;" xml:space="preserve">
<g>
	<g>
		<g>
			<path d="M229.99,48.228H67.01c-8.5,0-15.415,6.915-15.415,15.415v12.31h193.81v-12.31
				C245.405,55.143,238.49,48.228,229.99,48.228z"/>
			<path d="M70.324,263.781C71.875,282.408,87.734,297,106.426,297h84.147c18.692,0,34.551-14.592,36.103-33.219l14.518-174.21
				H55.806L70.324,263.781z"/>
			<path d="M120.738,26.102c0-6.883,5.6-12.483,12.483-12.483h30.556c6.884,0,12.484,5.6,12.484,12.483v8.507h13.619v-8.507
				C189.881,11.71,178.171,0,163.777,0h-30.556c-14.392,0-26.102,11.71-26.102,26.102v8.507h13.619V26.102z"/>
		</g>
	</g>
</g>
<g>
</g>
<g>
</g>
<g>
</g>
<g>
</g>
<g>
</g>
<g>
</g>
<g>
</g>
<g>
</g>
<g>
</g>
<g>
</g>
<g>
</g>
<g>
</g>
<g>
</g>
<g>
</g>
<g>
</g>
</svg>
