<?xml version="1.0" encoding="utf-8"?>
<!-- Generator: Adobe Illustrator 19.0.0, SVG Export Plug-In . SVG Version: 6.00 Build 0)  -->
<svg version="1.1" id="Слой_1" xmlns="http://www.w3.org/2000/svg" xmlns:xlink="http://www.w3.org/1999/xlink" x="0px" y="0px"
	 viewBox="-3 1 64 64" style="enable-background:new -3 1 64 64;" xml:space="preserve">
<path id="book-write" d="M55.7,54.3c0.6,0,1.1-0.5,1.1-1.1V14.9c0-0.6-0.5-1.1-1.1-1.1c-0.6,0-1.1,0.5-1.1,1.1v38.4
	C54.6,53.9,55.1,54.3,55.7,54.3L55.7,54.3z M58.9,59.7v-1.1h-3.2c-0.6,0-1.1-0.5-1.1-1.1s0.5-1.1,1.1-1.1h3.2V11.7h-3.2
	c-0.6,0-1.1-0.5-1.1-1.1c0-0.6,0.5-1.1,1.1-1.1h2.5l-2.5-5.1l-3.2,6.4v48.8c0,1.8,1.4,3.2,3.2,3.2C57.4,62.9,58.9,61.4,58.9,59.7
	L58.9,59.7z M61,10.6c0,0.1,0,0.1,0,0.2v48.9c0,2.9-2.4,5.3-5.3,5.3c-2.9,0-5.3-2.4-5.3-5.3V10.6c0-0.2,0-0.3,0.1-0.5l4.3-8.5
	c0.4-0.7,1.5-0.7,1.9,0l4.2,8.4C60.9,10.1,61,10.4,61,10.6L61,10.6z M30.1,33H19.4c-0.6,0-1.1,0.5-1.1,1.1c0,0.6,0.5,1.1,1.1,1.1
	h10.7c0.6,0,1.1-0.5,1.1-1.1C31.1,33.5,30.7,33,30.1,33L30.1,33z M19.4,30.9h6.4c0.6,0,1.1-0.5,1.1-1.1c0-0.6-0.5-1.1-1.1-1.1h-6.4
	c-0.6,0-1.1,0.5-1.1,1.1C18.3,30.4,18.8,30.9,19.4,30.9L19.4,30.9z M14.1,39.4h21.3V24.5H14.1V39.4z M11.9,40.5V23.4
	c0-0.6,0.5-1.1,1.1-1.1h23.5c0.6,0,1.1,0.5,1.1,1.1v17.1c0,0.6-0.5,1.1-1.1,1.1H13C12.4,41.5,11.9,41.1,11.9,40.5L11.9,40.5z
	 M-0.9,10.7v49c0,1.7,1.5,3.2,3.2,3.2h40.5c1.7,0,3.2-1.5,3.2-3.2v-48H2.3C1.5,11.7,0.2,11.4-0.9,10.7L-0.9,10.7z M47.1,3.1H1.3
	c-1.2,0-2.1,1-2.1,2.1v1.1c0,3,2.7,3.2,3.2,3.2h44.8c0.6,0,1.1,0.5,1.1,1.1v49.1c0,2.9-2.4,5.3-5.3,5.3H2.3C-0.5,65-3,62.6-3,59.7
	V5.3C-3,2.9-1.1,1,1.3,1h45.9c0.6,0,1.1,0.5,1.1,1.1S47.7,3.1,47.1,3.1L47.1,3.1z M2.3,60.7c0.6,0,1.1-0.5,1.1-1.1V14.9
	c0-0.6-0.5-1.1-1.1-1.1s-1.1,0.5-1.1,1.1v44.8C1.3,60.3,1.8,60.7,2.3,60.7L2.3,60.7z M45,5.3c0.6,0,1.1,0.5,1.1,1.1S45.6,7.4,45,7.4
	H2.3c-0.6,0-1.1-0.5-1.1-1.1s0.5-1.1,1.1-1.1H45z"/>
</svg>
