<?xml version="1.0" encoding="utf-8"?>
<!-- Generator: Adobe Illustrator 19.0.0, SVG Export Plug-In . SVG Version: 6.00 Build 0)  -->
<svg version="1.1" xmlns="http://www.w3.org/2000/svg" xmlns:xlink="http://www.w3.org/1999/xlink" x="0px" y="0px"
	 viewBox="0 0 1438.7 506" style="enable-background:new 0 0 1438.7 506;" xml:space="preserve">
<style type="text/css">
	.st0{fill-rule:evenodd;clip-rule:evenodd;}
</style>
<g id="Направляющие_для_монтажной_области">
</g>
<g id="Слой_1">
	<g>
		<polygon class="st0" points="156.2,226.2 190.8,333.3 303.3,333.1 212.2,399 247.2,506 156.2,439.7 65.3,506 100.3,399 9.1,333.1 
			121.7,333.3 		"/>
		<path class="st0" d="M78.3,89.8C72.9,92,56.8,79,44,67.2C33,56.9,24.2,49.6,22.1,47.9l0.3-0.6c0.6-1.4,0.9-2.9,0.9-4.5
			c0-6.4-5.2-11.6-11.7-11.6C5.2,31.1,0,36.3,0,42.7c0,6.4,5.2,11.6,11.6,11.6L41,148.2c0,0,64.5-18.3,112-16.8
			c47.5-1.4,112,16.8,112,16.8l29.3-93.8c6.4,0,11.6-5.2,11.6-11.6c0-6.4-5.2-11.6-11.6-11.6c-6.4,0-11.7,5.2-11.7,11.6
			c0,1.6,0.3,3.1,0.9,4.5l0.3,0.6c-2.1,1.7-10.9,9-21.9,19.3C249.3,79,233.1,92,227.8,89.8c-5.4-2.2-16.3-49.6-18.6-66.9
			c4.9-1.4,8.5-5.9,8.5-11.2c0-6.4-5.2-11.6-11.6-11.6c-6.4,0-11.7,5.2-11.7,11.6c0,3.3,1.4,6.3,3.6,8.4l0,0
			c-2.3,3.9-37.1,62.2-45,62.2c-8,0-42.7-58.3-45-62.2l0,0c2.2-2.1,3.6-5.1,3.6-8.4C111.6,5.2,106.4,0,100,0
			c-6.4,0-11.6,5.2-11.6,11.6c0,5.4,3.6,9.9,8.5,11.2C94.6,40.2,83.7,87.7,78.3,89.8z"/>
		<path class="st0" d="M88.1,158.5c-0.5-2.5,1.1-4.8,3.5-5.3c2.4-0.4,4.7,1.2,5.2,3.7c0.5,2.5-1.1,4.8-3.5,5.3
			C90.9,162.7,88.6,161,88.1,158.5L88.1,158.5z M141,155.3c-2.4,0-4.4-2-4.4-4.6c0-2.5,2-4.6,4.4-4.6c2.4,0,4.4,2,4.4,4.6
			C145.4,153.3,143.4,155.3,141,155.3L141,155.3z M163.7,155.3c-2.4,0-4.4-2-4.4-4.6c0-2.5,2-4.6,4.4-4.6c2.4,0,4.4,2,4.4,4.6
			C168.1,153.3,166.1,155.3,163.7,155.3L163.7,155.3z M209.6,156.5c0.5-2.5,2.8-4.1,5.2-3.7c2.4,0.4,4,2.8,3.5,5.3
			c-0.5,2.5-2.8,4.1-5.2,3.7C210.7,161.4,209.1,159,209.6,156.5L209.6,156.5z M254.9,179.2l7.9-24.4l-1.2-0.3
			c-24.8-6.5-51.9-11.6-77.3-14.4c-10.6-1.2-21.3-2-32-2c-10.7,0-21.4,0.8-32,2c-25.3,2.9-52.5,8-77.2,14.4l-0.5,0.1l6.9,25.1
			c31.1-8.1,71.4-15.7,103.5-15.7C184.5,163.9,224,171.3,254.9,179.2L254.9,179.2z M231.9,160.6c0.5-2.5,2.8-4.1,5.2-3.7
			c2.4,0.4,4,2.8,3.5,5.3c-0.5,2.5-2.8,4.1-5.2,3.7C233,165.5,231.4,163.1,231.9,160.6L231.9,160.6z M69.3,157.4
			c2.4-0.4,4.7,1.2,5.2,3.7c0.5,2.5-1.1,4.8-3.5,5.3c-2.4,0.4-4.7-1.2-5.2-3.7C65.3,160.2,66.9,157.8,69.3,157.4z"/>
	</g>
	<g>
		<path d="M704.2,175.8c-8.4,4.2-25.3,8.4-46.9,8.4c-50.1,0-87.8-31.6-87.8-89.9c0-55.6,37.7-93.3,92.8-93.3
			c22.1,0,36.1,4.7,42.2,7.9l-5.5,18.7c-8.7-4.2-21.1-7.4-35.8-7.4c-41.6,0-69.3,26.6-69.3,73.3c0,43.5,25,71.4,68.3,71.4
			c14,0,28.2-2.9,37.4-7.4L704.2,175.8z"/>
		<path d="M744.2,3.9l35.3,75.7c4.5,10.5,8.7,20.8,12.9,31.4h0.5c3.2-9.2,6.6-19.5,11.1-32.2l27.7-74.9H856l-37.2,91.2
			c-9.8,23.7-20.8,50.9-33.2,67.5c-11.6,14.5-24.5,21.9-40.3,21.9c-5.8,0-10-0.5-12.9-1.6l2.4-18.7c1.8,0.5,4.5,0.8,8.4,0.8
			c18.5-0.3,29.3-17.9,34.8-30.6c1.8-4,1.3-6.6-0.8-10.8l-59-119.7H744.2z"/>
		<path d="M1003.3,3.9v177.7h-22.9V23.2h-82.5v158.4H875V3.9H1003.3z"/>
		<path d="M1135.4,98.3h-69.1v64.1h77v19.2h-99.9V3.9h95.9v19.2h-73v56.1h69.1V98.3z"/>
		<path d="M1173.1,6c11.1-1.8,25.6-3.4,44-3.4c22.7,0,39.3,5.3,49.8,14.8c9.8,8.4,15.6,21.4,15.6,37.2c0,16.1-4.7,28.7-13.7,38
			c-12.1,12.9-31.9,19.5-54.3,19.5c-6.9,0-13.2-0.3-18.5-1.6v71.2h-22.9V6z M1196,91.7c5,1.3,11.3,1.8,19,1.8
			c27.7,0,44.5-13.4,44.5-38c0-23.5-16.6-34.8-41.9-34.8c-10,0-17.7,0.8-21.6,1.8V91.7z"/>
		<path d="M423.8,322.6c10-2.1,25.8-3.7,41.9-3.7c22.9,0,37.7,4,48.8,12.9c9.2,6.9,14.8,17.4,14.8,31.4c0,17.1-11.3,32.2-30,39v0.5
			c16.9,4.2,36.6,18.2,36.6,44.5c0,15.3-6.1,26.9-15,35.6c-12.4,11.3-32.4,16.6-61.4,16.6c-15.8,0-27.9-1.1-35.6-2.1V322.6z
			 M446.8,395.3h20.8c24.3,0,38.5-12.7,38.5-29.8c0-20.8-15.8-29-39-29c-10.5,0-16.6,0.8-20.3,1.6V395.3z M446.8,480.5
			c4.5,0.8,11.1,1.1,19.2,1.1c23.7,0,45.6-8.7,45.6-34.5c0-24.3-20.8-34.3-45.9-34.3h-19V480.5z"/>
		<path d="M658.7,414.6h-69.1v64.1h77v19.2h-99.9V320.2h95.9v19.2h-73v56.1h69.1V414.6z"/>
		<path d="M796,320.2v19.2h-76.7v47.7c5.5-0.8,16.1-1.3,21.9-1.3c16.9,0,33.5,3.7,45.9,11.9c13.4,8.7,22.7,22.7,22.7,43.5
			c0,16.6-5.5,29.3-14.8,38.5c-14.5,14.2-38.5,19.8-62.7,19.8c-16.1,0-28.2-1.1-35.8-2.1V320.2H796z M719.3,480.2
			c5.3,1.1,11.3,1.3,19.2,1.3c14.2,0,28.7-4.5,37.4-13.7c6.1-6.3,9.8-15,9.8-26.1c0-13.7-5.8-22.9-14.5-29c-9.2-6.3-21.1-9-33.7-9
			c-5.3,0-12.4,0.5-18.2,1.1V480.2z"/>
		<path d="M1020.3,492.1c-8.4,4.2-25.3,8.4-46.9,8.4c-50.1,0-87.8-31.6-87.8-89.9c0-55.6,37.7-93.3,92.8-93.3
			c22.1,0,36.1,4.7,42.2,7.9l-5.5,18.7c-8.7-4.2-21.1-7.4-35.8-7.4c-41.6,0-69.3,26.6-69.3,73.3c0,43.5,25,71.4,68.3,71.4
			c14,0,28.2-2.9,37.4-7.4L1020.3,492.1z"/>
		<path d="M1092,339.7h-54v-19.5h131.5v19.5h-54.3v158.2H1092V339.7z"/>
		<path d="M1196.7,442l-18.5,55.9h-23.7l60.4-177.7h27.7l60.6,177.7h-24.5l-19-55.9H1196.7z M1254.9,424.1l-17.4-51.1
			c-4-11.6-6.6-22.1-9.2-32.4h-0.5c-2.6,10.5-5.5,21.4-9,32.2l-17.4,51.4H1254.9z"/>
		<path d="M1329.3,322.3c11.1-1.8,25.6-3.4,44-3.4c22.7,0,39.3,5.3,49.8,14.8c9.8,8.4,15.6,21.4,15.6,37.2c0,16.1-4.7,28.7-13.7,38
			c-12.1,12.9-31.9,19.5-54.3,19.5c-6.9,0-13.2-0.3-18.5-1.6v71.2h-22.9V322.3z M1352.2,408c5,1.3,11.3,1.8,19,1.8
			c27.7,0,44.5-13.4,44.5-38c0-23.5-16.6-34.8-41.9-34.8c-10,0-17.7,0.8-21.6,1.8V408z"/>
	</g>
</g>
</svg>
